<?xml version="1.0" encoding="utf-8"?>
<!-- Generator: Adobe Illustrator 27.5.0, SVG Export Plug-In . SVG Version: 6.00 Build 0)  -->
<svg version="1.1" id="Layer_1" xmlns="http://www.w3.org/2000/svg" xmlns:xlink="http://www.w3.org/1999/xlink" x="0px" y="0px"
	 viewBox="0 0 1080 1080" style="enable-background:new 0 0 1080 1080;" xml:space="preserve">
<style type="text/css">
	.st0{fill:#FFFFFF;}
	.st1{fill:#22E3CC;}
	.st2{fill:#116E63;}
	.st3{fill:none;stroke:#FFFFFF;stroke-width:3;stroke-miterlimit:10;}
	.st4{fill:#FFFFFF;}
	.st5{fill:#116E63;}
	.st6{fill:#116E63;}
</style>
<!-- <rect class="st0" width="1080" height="720"/> -->
<g>
	<path class="st5" d="M631.574,749.077L489.403,711.97c-6.186-1.615-10.493-7.116-10.493-13.404V355.529
		c0-6.288,4.306-11.789,10.493-13.404l142.171-37.107c8.96-2.339,17.743,4.297,17.743,13.404v417.251
		C649.317,744.78,640.533,751.416,631.574,749.077z"/>
	<path class="st5" d="M626.393,737.754l-156.815-37.128c-4.188-0.992-7.11-4.426-7.11-8.357V364.571c0-3.931,2.922-7.366,7.11-8.357
		l156.815-37.127c6.024-1.426,11.907,2.703,11.907,8.357v401.953C638.3,735.052,632.417,739.181,626.393,737.754z"/>
	<path class="st3" d="M618.1,737.746l-149.639-37.009c-4.128-1.021-7.008-4.557-7.008-8.605V364.708c0-4.047,2.88-7.584,7.008-8.605
		L618.1,319.095c5.938-1.469,11.736,2.783,11.736,8.605v401.442C629.836,734.963,624.038,739.215,618.1,737.746z"/>
	<path class="st3" d="M601.571,734.725l-142.228-35.059c-5.373-1.324-9.122-5.912-9.122-11.163V369.849
		c0-5.25,3.749-9.838,9.122-11.163l142.228-35.059c7.728-1.905,15.276,3.61,15.276,11.163v388.773
		C616.847,731.115,609.3,736.631,601.571,734.725z"/>
	<path class="st5" d="M593.197,775.105l-154.561-40.289c-4.684-1.221-7.953-5.451-7.953-10.292V365.472
		c0-4.841,3.269-9.071,7.953-10.292l154.561-40.289c6.738-1.757,13.319,3.329,13.319,10.292v439.63
		C606.516,771.776,599.936,776.862,593.197,775.105z"/>
	<circle class="st0" cx="467.69" cy="550.22" r="14.188"/>
</g>
</svg>
